<svg width="100" height="65" viewBox="0 0 100 65" fill="none" xmlns="http://www.w3.org/2000/svg">
<path d="M77.8436 54.1479C74.768 54.1479 72.9438 52.6133 72.8042 50.403H75.745C75.745 51.1398 76.1638 52.1206 77.9831 52.1816C79.2442 52.1816 79.9421 51.4448 79.9421 50.8911C79.8025 50.0323 78.6811 49.9712 77.5644 49.7835C76.5553 49.6672 75.5664 49.421 74.6236 49.0514C74.1442 48.7898 73.7473 48.4054 73.4759 47.9398C73.2044 47.4741 73.0687 46.9448 73.0834 46.4094C73.0834 44.4431 74.768 42.9086 77.704 42.9086C80.5052 42.9086 82.3246 44.3211 82.4594 46.4704H79.6629C79.6629 45.9214 79.5234 44.9969 77.8436 44.9969C76.7221 44.9969 76.0242 45.1798 75.8846 45.9776C75.8846 47.0851 78.2623 47.0242 80.0817 47.4513C81.7614 47.883 82.8829 48.9248 82.8829 50.403C82.8829 53.1061 80.6448 54.1479 77.8436 54.1479Z" fill="black"/>
<path d="M24.2549 36.0126L33.9101 30.5454L39.0891 39.2085H26.0745" fill="black"/>
<path fill-rule="evenodd" clip-rule="evenodd" d="M45.9706 42.8871V53.8213H43.1452V42.8871H45.9706Z" fill="black"/>
<path d="M19.7737 48.5166C19.7737 50.2342 21.3139 51.6467 22.9889 51.6467C24.8131 51.6467 26.2089 50.2342 26.2089 48.5166C26.2089 46.8601 24.8131 45.3866 22.9889 45.3866C22.1461 45.4145 21.3457 45.7531 20.7489 46.3341C20.1522 46.915 19.8037 47.695 19.7737 48.5166ZM22.8493 54.1668C19.7737 54.1668 17.1169 51.6467 17.1169 48.5166C17.1169 45.3865 19.7737 42.9274 22.8493 42.9274C24.1104 42.9274 25.2318 43.2372 26.2089 43.9083V43.0495H29.0101V53.918H26.2089V53.2422C25.3714 53.857 24.1104 54.1668 22.8493 54.1668Z" fill="black"/>
<path d="M60.2187 39.2047L46.7852 16.3601L56.4405 10.832L73.2335 39.2047" fill="black"/>
<path d="M32.6493 48.5165C32.6493 50.2341 34.0499 51.6466 35.8692 51.6466C37.5442 51.6466 39.0892 50.2341 39.0892 48.5165C39.058 47.6945 38.7085 46.9145 38.111 46.3337C37.5135 45.7529 36.7125 45.4144 35.8692 45.3865C35.0181 45.3902 34.2027 45.7208 33.5999 46.3068C32.9972 46.8927 32.6556 47.6867 32.6493 48.5165ZM35.7297 54.1667C34.971 54.168 34.2196 54.0222 33.5191 53.7381C32.8187 53.4539 32.1831 53.0368 31.6493 52.5112C31.1156 51.9855 30.6943 51.3616 30.4098 50.6759C30.1254 49.9901 29.9835 49.2562 29.9924 48.5165C29.9924 45.3864 32.5097 42.9274 35.7297 42.9274C36.9859 42.9274 38.1073 43.2372 39.0892 43.9082V39.3045H41.8856V53.9179H39.0892V53.2421C38.0859 53.8634 36.918 54.1848 35.7297 54.1667Z" fill="black"/>
<path d="M35.5898 26.249L45.3849 20.8477L56.1612 39.2059H45.943V41.9089H43.1466V39.2059" fill="black"/>
<path d="M81.0686 41.9936C80.703 41.9832 80.3551 41.8379 80.0951 41.587C79.8351 41.3362 79.6824 40.9985 79.668 40.6421C79.6824 40.2858 79.8351 39.9481 80.0951 39.6972C80.3551 39.4463 80.703 39.301 81.0686 39.2906C81.2527 39.2855 81.436 39.3169 81.6074 39.3828C81.7787 39.4488 81.9346 39.5478 82.0655 39.6741C82.1964 39.8005 82.2997 39.9514 82.3691 40.1178C82.4385 40.2842 82.4726 40.4625 82.4692 40.6421C82.4726 40.8217 82.4385 41 82.3691 41.1664C82.2997 41.3328 82.1964 41.4837 82.0655 41.6101C81.9346 41.7364 81.7787 41.8356 81.6074 41.9015C81.436 41.9674 81.2527 41.9987 81.0686 41.9936ZM81.0686 39.4784C80.3659 39.4784 79.9471 40.0274 79.9471 40.6421C79.9471 41.2569 80.3659 41.8106 81.0686 41.8106C81.7665 41.8106 82.1853 41.2569 82.1853 40.6421C82.1853 40.0274 81.7665 39.4784 81.0686 39.4784Z" fill="black"/>
<path d="M81.356 41.3838L81.0768 40.769H80.7977V41.3838H80.5859V39.9101H81.2164C81.356 39.9101 81.6352 40.0979 81.6352 40.3419C81.64 40.4325 81.6156 40.5224 81.5656 40.599C81.5156 40.6755 81.4423 40.7349 81.356 40.769L81.6352 41.3838H81.356ZM81.0768 40.0979H80.7977V40.5859H81.0768C81.356 40.5859 81.356 40.5249 81.356 40.3419C81.356 40.2152 81.356 40.0979 81.0768 40.0979ZM62.5848 48.5167C62.5848 50.2343 63.9855 51.6468 65.8048 51.6468C67.4846 51.6468 69.02 50.2343 69.02 48.5167C68.9911 47.6947 68.643 46.9141 68.046 46.3329C67.4491 45.7517 66.6479 45.4136 65.8048 45.3867C64.9536 45.3904 64.1383 45.721 63.5355 46.307C62.9327 46.8929 62.5912 47.6869 62.5848 48.5167ZM65.6604 54.1669C64.9022 54.1676 64.1513 54.0214 63.4514 53.737C62.7515 53.4525 62.1165 53.0353 61.5832 52.5097C61.05 51.984 60.6291 51.3605 60.3449 50.6751C60.0608 49.9897 59.9191 49.256 59.928 48.5167C59.928 45.3867 62.4453 42.9276 65.6604 42.9276C66.9215 42.9276 68.0429 43.2374 69.02 43.9085V43.0496H71.6816V53.9181H69.02V53.2423C68.0173 53.8649 66.849 54.1864 65.6604 54.1669ZM49.7194 48.5167C49.7194 50.2343 51.2595 51.6468 52.9393 51.6468C54.7587 51.6468 56.1593 50.2343 56.1593 48.5167C56.153 47.6869 55.8114 46.8929 55.2086 46.307C54.6058 45.721 53.7905 45.3904 52.9393 45.3867C52.0957 45.4135 51.294 45.7516 50.6963 46.3326C50.0986 46.9137 49.7494 47.6943 49.7194 48.5167ZM56.1593 39.3047H58.9557V53.9181H56.1593V53.2423C55.2162 53.8807 54.0868 54.205 52.9393 54.1669C49.7193 54.1669 47.0625 51.6468 47.0625 48.5167C47.0625 45.3867 49.7193 42.9276 52.9393 42.9276C54.1955 42.9276 55.317 43.2374 56.1593 43.9085V39.3047Z" fill="black"/>
</svg>
