<svg width="32" height="32" viewBox="0 0 32 32" fill="none" xmlns="http://www.w3.org/2000/svg">
<path fill-rule="evenodd" clip-rule="evenodd" d="M0 16C0 7.16344 7.16344 0 16 0C24.8366 0 32 7.16344 32 16C32 24.8366 24.8366 32 16 32C7.16344 32 0 24.8366 0 16ZM18.6048 9.44098C19.2157 8.65237 19.6788 7.53775 19.5113 6.4C18.5128 6.46939 17.3457 7.1082 16.6648 7.94086C16.044 8.69533 15.5338 9.81766 15.7331 10.9069C16.8246 10.9411 17.9512 10.2869 18.6048 9.44098ZM24 20.1433C20.8229 18.9351 20.3138 14.4182 23.4581 12.6846C22.499 11.4819 21.1513 10.7847 19.8791 10.7847C18.1986 10.7847 17.4881 11.5887 16.321 11.5887C15.1178 11.5887 14.2036 10.7869 12.7508 10.7869C11.3232 10.7869 9.80359 11.6592 8.84016 13.1505C7.48588 15.2509 7.71689 19.1994 9.91308 22.5631C10.6981 23.7669 11.7469 25.1195 13.1187 25.1316C14.3394 25.1437 14.6843 24.3485 16.3385 24.3397C17.9928 24.3297 18.307 25.1415 19.5255 25.1283C20.8984 25.1173 22.0053 23.6182 22.7902 22.4144C23.353 21.552 23.5632 21.117 24 20.1433Z" fill="#F9F9F9"/>
</svg>
