<svg width="183" height="60" viewBox="0 0 183 60" fill="none" xmlns="http://www.w3.org/2000/svg">
<rect x="0.5" y="0.5" width="182" height="59" rx="6.5" fill="#0C0D10"/>
<path d="M124.327 28.8014V32.2379H122.137V34.4916H124.327V42.1491C124.327 44.7638 125.53 45.8097 128.555 45.8097C129.087 45.8097 129.593 45.7475 130.036 45.6727V43.444C129.656 43.4813 129.416 43.5062 128.998 43.5062C127.644 43.5062 127.049 42.8837 127.049 41.4643V34.4916H130.036V32.2379H127.049V28.8014H124.327Z" fill="white"/>
<path d="M137.743 45.9965C141.769 45.9965 144.237 43.3444 144.237 38.9491C144.237 34.5788 141.756 31.9142 137.743 31.9142C133.718 31.9142 131.237 34.5788 131.237 38.9491C131.237 43.3444 133.705 45.9965 137.743 45.9965ZM137.743 43.6183C135.376 43.6183 134.047 41.9125 134.047 38.9491C134.047 36.0106 135.376 34.2924 137.743 34.2924C140.098 34.2924 141.439 36.0106 141.439 38.9491C141.439 41.9 140.098 43.6183 137.743 43.6183Z" fill="white"/>
<path d="M146.349 45.735H149.071V37.7289C149.071 35.8239 150.526 34.5414 152.59 34.5414C153.071 34.5414 153.881 34.6286 154.109 34.7033V32.0636C153.818 31.9889 153.299 31.9516 152.894 31.9516C151.096 31.9516 149.564 32.9227 149.172 34.255H148.969V32.1757H146.349V45.735Z" fill="white"/>
<path d="M160.867 34.1928C162.879 34.1928 164.196 35.5748 164.259 37.704H157.297C157.449 35.5873 158.854 34.1928 160.867 34.1928ZM164.246 42.0744C163.74 43.1327 162.613 43.7179 160.968 43.7179C158.79 43.7179 157.385 42.2113 157.297 39.8331V39.6837H167.031V38.7499C167.031 34.4916 164.715 31.9142 160.879 31.9142C156.993 31.9142 154.525 34.6659 154.525 38.9989C154.525 43.3319 156.942 45.9965 160.892 45.9965C164.044 45.9965 166.246 44.5023 166.867 42.0744H164.246Z" fill="white"/>
<path d="M106.479 40.7278C106.689 44.0573 109.51 46.1867 113.708 46.1867C118.195 46.1867 121.003 43.9541 121.003 40.3922C121.003 37.5918 119.403 36.0431 115.519 35.1527L113.433 34.6494C110.966 34.0815 109.969 33.3201 109.969 31.9909C109.969 30.3132 111.517 29.2163 113.84 29.2163C116.044 29.2163 117.566 30.2874 117.841 32.0038H120.701C120.531 28.8678 117.723 26.661 113.879 26.661C109.746 26.661 106.991 28.8678 106.991 32.1845C106.991 34.9204 108.552 36.5464 111.976 37.3337L114.417 37.9144C116.923 38.4951 118.025 39.3469 118.025 40.7665C118.025 42.4183 116.293 43.6185 113.931 43.6185C111.399 43.6185 109.641 42.4958 109.392 40.7278H106.479Z" fill="white"/>
<path d="M78.2858 31.9516C76.4123 31.9516 74.792 32.8729 73.9565 34.4169H73.754V32.1757H71.1336V50.2423H73.8552V43.6806H74.0704C74.792 45.1124 76.349 45.9591 78.3111 45.9591C81.7922 45.9591 84.0075 43.2572 84.0075 38.9491C84.0075 34.641 81.7922 31.9516 78.2858 31.9516ZM77.5136 43.556C75.235 43.556 73.8046 41.788 73.8046 38.9616C73.8046 36.1227 75.235 34.3546 77.5263 34.3546C79.8302 34.3546 81.2099 36.0853 81.2099 38.9491C81.2099 41.8253 79.8302 43.556 77.5136 43.556Z" fill="white"/>
<path d="M93.5309 31.9516C91.6574 31.9516 90.0371 32.8729 89.2016 34.4169H88.9991V32.1757H86.3787V50.2423H89.1004V43.6806H89.3156C90.0371 45.1124 91.5941 45.9591 93.5562 45.9591C97.0374 45.9591 99.2526 43.2572 99.2526 38.9491C99.2526 34.641 97.0374 31.9516 93.5309 31.9516ZM92.7587 43.556C90.4802 43.556 89.0497 41.788 89.0497 38.9616C89.0497 36.1227 90.4802 34.3546 92.7714 34.3546C95.0753 34.3546 96.4551 36.0853 96.4551 38.9491C96.4551 41.8253 95.0753 43.556 92.7587 43.556Z" fill="white"/>
<path d="M66.2506 45.735H69.3732L62.5375 27.1127H59.3755L52.5398 45.735H55.5575L57.3025 40.7923H64.5187L66.2506 45.735ZM60.8056 30.4939H61.0287L63.7708 38.3661H58.0503L60.8056 30.4939Z" fill="white"/>
<path d="M54.3679 13.0664V22.0499H57.6655C60.3871 22.0499 61.9631 20.4001 61.9631 17.5302C61.9631 14.7037 60.3745 13.0664 57.6655 13.0664H54.3679ZM55.7857 14.3364H57.5073C59.3997 14.3364 60.52 15.5193 60.52 17.5488C60.52 19.6095 59.4187 20.7799 57.5073 20.7799H55.7857V14.3364Z" fill="white"/>
<path d="M66.7899 22.1807C68.8026 22.1807 70.0368 20.8546 70.0368 18.657C70.0368 16.4718 68.7963 15.1395 66.7899 15.1395C64.7772 15.1395 63.5366 16.4718 63.5366 18.657C63.5366 20.8546 64.7708 22.1807 66.7899 22.1807ZM66.7899 20.9916C65.6063 20.9916 64.9417 20.1387 64.9417 18.657C64.9417 17.1877 65.6063 16.3286 66.7899 16.3286C67.9672 16.3286 68.6381 17.1877 68.6381 18.657C68.6381 20.1324 67.9672 20.9916 66.7899 20.9916Z" fill="white"/>
<path d="M80.5474 15.2703H79.1866L77.9587 20.4437H77.8511L76.4333 15.2703H75.1294L73.7117 20.4437H73.6104L72.3762 15.2703H70.9964L72.8952 22.0499H74.294L75.7117 17.057H75.8193L77.2434 22.0499H78.6549L80.5474 15.2703Z" fill="white"/>
<path d="M82.1145 22.0499H83.4753V18.0842C83.4753 17.0259 84.1146 16.366 85.1209 16.366C86.1273 16.366 86.6083 16.9076 86.6083 17.9971V22.0499H87.9691V17.6609C87.9691 16.0485 87.121 15.1395 85.583 15.1395C84.545 15.1395 83.8614 15.594 83.5259 16.3473H83.4247V15.2703H82.1145V22.0499Z" fill="white"/>
<path d="M90.1123 22.0499H91.4731V12.6244H90.1123V22.0499Z" fill="white"/>
<path d="M96.591 22.1807C98.6037 22.1807 99.8379 20.8546 99.8379 18.657C99.8379 16.4718 98.5974 15.1395 96.591 15.1395C94.5783 15.1395 93.3377 16.4718 93.3377 18.657C93.3377 20.8546 94.5719 22.1807 96.591 22.1807ZM96.591 20.9916C95.4074 20.9916 94.7428 20.1387 94.7428 18.657C94.7428 17.1877 95.4074 16.3286 96.591 16.3286C97.7682 16.3286 98.4392 17.1877 98.4392 18.657C98.4392 20.1324 97.7682 20.9916 96.591 20.9916Z" fill="white"/>
<path d="M103.893 21.0352C103.152 21.0352 102.614 20.6803 102.614 20.0702C102.614 19.4725 103.044 19.155 103.994 19.0928L105.677 18.9869V19.5535C105.677 20.3939 104.918 21.0352 103.893 21.0352ZM103.544 22.162C104.449 22.162 105.203 21.776 105.614 21.0974H105.722V22.0499H107.032V17.4181C107.032 15.9862 106.057 15.1395 104.329 15.1395C102.766 15.1395 101.652 15.8866 101.513 17.0508H102.829C102.981 16.5714 103.506 16.2975 104.266 16.2975C105.196 16.2975 105.677 16.7021 105.677 17.4181V18.0033L103.81 18.1091C102.171 18.2087 101.247 18.9122 101.247 20.1324C101.247 21.3713 102.215 22.162 103.544 22.162Z" fill="white"/>
<path d="M111.65 22.162C112.599 22.162 113.403 21.72 113.814 20.9791H113.922V22.0499H115.226V12.6244H113.865V16.3473H113.764C113.39 15.6002 112.593 15.1582 111.65 15.1582C109.909 15.1582 108.789 16.5154 108.789 18.657C108.789 20.8048 109.897 22.162 111.65 22.162ZM112.036 16.3597C113.175 16.3597 113.89 17.25 113.89 18.6632C113.89 20.0826 113.181 20.9604 112.036 20.9604C110.884 20.9604 110.194 20.0951 110.194 18.657C110.194 17.2313 110.89 16.3597 112.036 16.3597Z" fill="white"/>
<path d="M124.05 22.1807C126.063 22.1807 127.297 20.8546 127.297 18.657C127.297 16.4718 126.057 15.1395 124.05 15.1395C122.037 15.1395 120.797 16.4718 120.797 18.657C120.797 20.8546 122.031 22.1807 124.05 22.1807ZM124.05 20.9916C122.867 20.9916 122.202 20.1387 122.202 18.657C122.202 17.1877 122.867 16.3286 124.05 16.3286C125.227 16.3286 125.898 17.1877 125.898 18.657C125.898 20.1324 125.227 20.9916 124.05 20.9916Z" fill="white"/>
<path d="M129.099 22.0499H130.459V18.0842C130.459 17.0259 131.099 16.366 132.105 16.366C133.111 16.366 133.592 16.9076 133.592 17.9971V22.0499H134.953V17.6609C134.953 16.0485 134.105 15.1395 132.567 15.1395C131.529 15.1395 130.845 15.594 130.51 16.3473H130.409V15.2703H129.099V22.0499Z" fill="white"/>
<path d="M141.22 13.5831V15.3014H140.125V16.4282H141.22V20.257C141.22 21.5643 141.822 22.0873 143.334 22.0873C143.6 22.0873 143.853 22.0562 144.075 22.0188V20.9044C143.885 20.9231 143.765 20.9355 143.556 20.9355C142.879 20.9355 142.581 20.6243 142.581 19.9146V16.4282H144.075V15.3014H142.581V13.5831H141.22Z" fill="white"/>
<path d="M145.902 22.0499H147.262V18.0905C147.262 17.0632 147.883 16.3722 148.997 16.3722C149.959 16.3722 150.471 16.92 150.471 18.0033V22.0499H151.832V17.6733C151.832 16.0609 150.927 15.1458 149.459 15.1458C148.421 15.1458 147.693 15.6002 147.357 16.3597H147.25V12.6244H145.902V22.0499Z" fill="white"/>
<path d="M156.741 16.2788C157.748 16.2788 158.406 16.9698 158.438 18.0344H154.956C155.032 16.9761 155.735 16.2788 156.741 16.2788ZM158.431 20.2196C158.178 20.7488 157.615 21.0414 156.792 21.0414C155.703 21.0414 155.001 20.2881 154.956 19.099V19.0243H159.824V18.5574C159.824 16.4282 158.665 15.1395 156.748 15.1395C154.805 15.1395 153.57 16.5154 153.57 18.6819C153.57 20.8484 154.779 22.1807 156.754 22.1807C158.33 22.1807 159.431 21.4336 159.741 20.2196H158.431Z" fill="white"/>
<path d="M37.7727 30.4512C37.8057 27.9297 39.1824 25.5438 41.3664 24.2231C39.9886 22.2877 37.6809 21.0605 35.2799 20.9866C32.7191 20.7222 30.2365 22.4939 28.9315 22.4939C27.6013 22.4939 25.5921 21.0129 23.4285 21.0567C20.6084 21.1463 17.9794 22.7233 16.6073 25.1485C13.658 30.1711 15.8579 37.5527 18.6832 41.6126C20.0967 43.6006 21.7487 45.8213 23.9103 45.7425C26.0256 45.6562 26.8156 44.4158 29.3689 44.4158C31.8985 44.4158 32.6397 45.7425 34.8452 45.6925C37.1149 45.6562 38.545 43.6956 39.9089 41.6887C40.9246 40.2722 41.7061 38.7066 42.2245 37.05C39.5571 35.9403 37.7758 33.2999 37.7727 30.4512Z" fill="white"/>
<path d="M33.6069 18.3166C34.8445 16.8553 35.4542 14.977 35.3065 13.0807C33.4158 13.276 31.6693 14.1649 30.415 15.5701C29.1885 16.9431 28.5502 18.7883 28.6708 20.6122C30.5623 20.6313 32.4217 19.7666 33.6069 18.3166Z" fill="white"/>
<rect x="0.5" y="0.5" width="182" height="59" rx="6.5" stroke="#A6A6A6"/>
</svg>
