<svg width="100" height="65" viewBox="0 0 100 65" fill="none" xmlns="http://www.w3.org/2000/svg">
<path d="M36.2936 41.5527L36.219 23.4437C36.219 21.623 37.6731 20.1502 39.5373 20.1502H39.9015C41.7675 20.1502 43.281 21.623 43.281 23.4437L43.3552 41.5527C43.3552 43.3707 41.8446 44.8478 39.9743 44.8478H39.5913C37.721 44.8478 36.2936 43.3707 36.2936 41.5527ZM78.9537 22.289L86.4612 34.206C88.084 36.7793 88.4612 37.4499 88.4612 39.3471C88.4612 42.3395 85.679 44.6289 83.21 44.6289H73.0734C71.2206 44.6289 69.7276 43.382 69.7276 41.5797V41.3738C69.7276 39.5731 71.2206 38.1144 73.0734 38.1144H79.2873C79.6762 38.1144 79.9239 38.0633 80.0259 37.8234C80.1395 37.5605 80.1089 37.4128 79.9239 37.1189L75.4973 30.1925C75.4227 30.0776 75.3413 29.9184 75.2015 29.9184C75.0732 29.9184 74.9625 30.0776 74.9029 30.201L68.1338 41.5202C67.0852 43.3168 65.844 44.6289 63.9941 44.6289H50.9879C48.5263 44.6289 46.0455 42.2614 46.0455 39.8088V23.4337C46.0455 21.6343 47.54 20.173 49.3827 20.173H49.8095C51.6566 20.173 53.1552 21.6343 53.1552 23.4337L53.1495 36.8107C53.1495 37.3049 53.5165 37.6954 54.0628 37.6954H60.5302C61.6592 37.6954 62.3424 37.2994 62.9366 36.3364L71.6284 22.289C72.4586 20.9526 73.7869 20.2382 75.3544 20.2382C76.8707 20.2382 78.0724 20.9071 78.9537 22.289ZM19.5554 36.1518C19.436 36.1516 19.3178 36.1744 19.2075 36.2189C19.0973 36.2634 18.9971 36.3287 18.9128 36.4111C18.8285 36.4934 18.7617 36.5912 18.7162 36.6988C18.6708 36.8064 18.6476 36.9216 18.648 37.038V41.5954C18.648 43.3962 17.1519 44.8504 15.3079 44.8504H14.8782C13.034 44.8504 11.5381 43.3964 11.5381 41.5954L11.541 33.3071C11.541 31.2037 13.1972 29.427 15.5191 29.427H29.1007C30.9433 29.427 32.4406 30.8869 32.4406 32.6878V32.8923C32.4406 34.696 30.9433 36.1518 29.1007 36.1518H19.5554Z" fill="black"/>
<path d="M14.9192 20.6187H30.7395C32.6041 20.6187 34.1205 22.0374 34.1205 23.854V24.0584C34.1205 25.8834 32.6041 27.3576 30.7395 27.3576H14.9194C13.0533 27.3576 11.5399 25.8834 11.5399 24.0584V23.8326C11.5397 22.012 13.0533 20.6187 14.9194 20.6187" fill="#E51937"/>
</svg>
