<svg width="206" height="60" viewBox="0 0 206 60" fill="none" xmlns="http://www.w3.org/2000/svg">
<rect x="0.5" y="0.5" width="205" height="59" rx="4.5" fill="black"/>
<path d="M103.971 32.6267C100.382 32.6267 97.4563 35.3102 97.4563 39.0062C97.4563 42.6797 100.382 45.3857 103.971 45.3857C107.561 45.3857 110.486 42.6797 110.486 39.0062C110.485 35.3102 107.559 32.6267 103.971 32.6267ZM103.971 42.8747C102.004 42.8747 100.308 41.2802 100.308 39.0077C100.308 36.7112 102.005 35.1407 103.971 35.1407C105.937 35.1407 107.633 36.7112 107.633 39.0077C107.633 41.2787 105.937 42.8747 103.971 42.8747ZM89.758 32.6267C86.1691 32.6267 83.2439 35.3102 83.2439 39.0062C83.2439 42.6797 86.1691 45.3857 89.758 45.3857C93.3485 45.3857 96.2737 42.6797 96.2737 39.0062C96.2737 35.3102 93.3485 32.6267 89.758 32.6267ZM89.758 42.8747C87.7911 42.8747 86.0958 41.2802 86.0958 39.0077C86.0958 36.7112 87.7926 35.1407 89.758 35.1407C91.725 35.1407 93.4203 36.7112 93.4203 39.0077C93.4218 41.2787 91.725 42.8747 89.758 42.8747ZM72.8538 34.5857V37.2917H79.4428C79.2459 38.8142 78.7302 39.9257 77.9428 40.6982C76.9845 41.6402 75.4845 42.6797 72.8538 42.6797C68.7979 42.6797 65.627 39.4652 65.627 35.4782C65.627 31.4912 68.7979 28.2767 72.8538 28.2767C75.042 28.2767 76.6397 29.1227 77.8192 30.2102L79.7617 28.3007C78.1137 26.7542 75.927 25.5707 72.8538 25.5707C67.2979 25.5707 62.6271 30.0167 62.6271 35.4782C62.6271 40.9397 67.2979 45.3857 72.8538 45.3857C75.8523 45.3857 78.1152 44.4182 79.8838 42.6062C81.7027 40.8182 82.2688 38.3042 82.2688 36.2747C82.2688 35.6477 82.22 35.0672 82.1208 34.5842H72.8538V34.5857ZM141.99 36.6872C141.45 35.2622 139.802 32.6267 136.435 32.6267C133.091 32.6267 130.313 35.2127 130.313 39.0062C130.313 42.5822 133.067 45.3857 136.754 45.3857C139.728 45.3857 141.449 43.5977 142.163 42.5582L139.95 41.1077C139.213 42.1712 138.205 42.8717 136.754 42.8717C135.304 42.8717 134.271 42.2192 133.607 40.9382L142.285 37.4102L141.99 36.6872ZM133.14 38.8142C133.067 36.3482 135.083 35.0927 136.534 35.0927C137.664 35.0927 138.623 35.6492 138.943 36.4457L133.14 38.8142ZM126.086 45.0002H128.936V26.2487H126.086V45.0002ZM121.413 34.0532H121.316C120.676 33.3032 119.446 32.6267 117.899 32.6267C114.654 32.6267 111.679 35.4302 111.679 39.0317C111.679 42.6077 114.654 45.3872 117.899 45.3872C119.448 45.3872 120.676 44.7107 121.316 43.9382H121.413V44.8562C121.413 47.2967 120.086 48.6017 117.948 48.6017C116.202 48.6017 115.12 47.3702 114.678 46.3307L112.195 47.3462C112.908 49.0367 114.8 51.1157 117.948 51.1157C121.291 51.1157 124.119 49.1822 124.119 44.4692V33.0152H121.415V34.0532H121.413ZM118.145 42.8747C116.178 42.8747 114.531 41.2547 114.531 39.0317C114.531 36.7832 116.178 35.1407 118.145 35.1407C120.086 35.1407 121.61 36.7832 121.61 39.0317C121.61 41.2547 120.086 42.8747 118.145 42.8747ZM155.348 26.2487H148.526V45.0002H151.372V37.8962H155.347C158.503 37.8962 161.606 35.6507 161.606 32.0732C161.606 28.4957 158.504 26.2487 155.348 26.2487ZM155.422 35.2862H151.372V28.8587H155.422C157.55 28.8587 158.759 30.5912 158.759 32.0732C158.759 33.5252 157.55 35.2862 155.422 35.2862ZM173.019 32.5937C170.957 32.5937 168.822 33.4862 167.939 35.4647L170.466 36.5012C171.006 35.4647 172.013 35.1257 173.067 35.1257C174.54 35.1257 176.037 35.9942 176.061 37.5377V37.7312C175.546 37.4417 174.441 37.0082 173.092 37.0082C170.368 37.0082 167.594 38.4797 167.594 41.2292C167.594 43.7387 169.828 45.3542 172.33 45.3542C174.244 45.3542 175.3 44.5097 175.962 43.5197H176.06V44.9672H178.81V37.7777C178.811 34.4507 176.281 32.5937 173.019 32.5937ZM172.674 42.8702C171.743 42.8702 170.441 42.4112 170.441 41.2772C170.441 39.8297 172.062 39.2747 173.461 39.2747C174.711 39.2747 175.301 39.5402 176.061 39.9017C175.84 41.6402 174.319 42.8702 172.674 42.8702ZM188.823 33.0032L185.559 41.1332H185.461L182.074 33.0032H179.006L184.086 44.3657L181.19 50.6867H184.159L191.989 33.0032H188.823ZM163.178 45.0002H166.024V26.2487H163.178V45.0002Z" fill="white"/>
<path d="M72.3565 15.3644C72.3565 16.6214 71.9781 17.6219 71.2197 18.3689C70.359 19.2569 69.236 19.7009 67.8565 19.7009C66.5351 19.7009 65.4105 19.2509 64.4873 18.3509C63.5626 17.4494 63.1002 16.3334 63.1002 15.0014C63.1002 13.6679 63.5626 12.5519 64.4873 11.6519C65.4105 10.7504 66.5351 10.3004 67.8565 10.3004C68.5127 10.3004 69.1398 10.4264 69.7349 10.6769C70.3316 10.9289 70.8092 11.2634 71.1663 11.6819L70.3621 12.4739C69.7563 11.7614 68.9216 11.4059 67.855 11.4059C66.8906 11.4059 66.0575 11.7389 65.354 12.4049C64.6506 13.0709 64.2996 13.9364 64.2996 14.9999C64.2996 16.0634 64.6506 16.9289 65.354 17.5949C66.0575 18.2609 66.8906 18.5939 67.855 18.5939C68.8774 18.5939 69.7304 18.2594 70.4125 17.5889C70.855 17.1524 71.1113 16.5449 71.18 15.7664H67.855V14.6849H72.2909C72.3366 14.9204 72.3565 15.1469 72.3565 15.3644Z" fill="white"/>
<path d="M79.3911 11.6055H75.2223V14.4585H78.9822V15.54H75.2223V18.393H79.3911V19.5H74.0458V10.5H79.3911V11.6055Z" fill="white"/>
<path d="M84.3518 19.5H83.1753V11.6055H80.6178V10.5H86.9092V11.6055H84.3518V19.5Z" fill="white"/>
<path d="M91.461 19.5V10.5H92.6375V19.5H91.461Z" fill="white"/>
<path d="M97.8549 19.5H96.6784V11.6055H94.1209V10.5H100.412V11.6055H97.8549V19.5Z" fill="white"/>
<path d="M112.322 18.3375C111.422 19.2465 110.303 19.701 108.965 19.701C107.627 19.701 106.508 19.2465 105.609 18.3375C104.709 17.4285 104.26 16.3155 104.26 15C104.26 13.6845 104.709 12.5715 105.609 11.6625C106.508 10.7535 107.627 10.2975 108.965 10.2975C110.295 10.2975 111.412 10.755 112.316 11.6685C113.219 12.582 113.671 13.692 113.671 15C113.671 16.3155 113.221 17.4285 112.322 18.3375ZM106.478 17.583C107.155 18.258 107.984 18.594 108.965 18.594C109.946 18.594 110.776 18.2565 111.452 17.583C112.13 16.908 112.47 16.047 112.47 15C112.47 13.953 112.13 13.092 111.452 12.417C110.776 11.742 109.946 11.406 108.965 11.406C107.984 11.406 107.155 11.7435 106.478 12.417C105.802 13.092 105.461 13.953 105.461 15C105.461 16.047 105.802 16.908 106.478 17.583Z" fill="white"/>
<path d="M115.322 19.5V10.5H116.753L121.203 17.5005H121.253L121.203 15.7665V10.5H122.379V19.5H121.151L116.495 12.159H116.445L116.495 13.893V19.5H115.322Z" fill="white"/>
<path d="M72.3565 15.3644C72.3565 16.6214 71.9781 17.6219 71.2197 18.3689C70.359 19.2569 69.236 19.7009 67.8565 19.7009C66.5351 19.7009 65.4105 19.2509 64.4873 18.3509C63.5626 17.4494 63.1002 16.3334 63.1002 15.0014C63.1002 13.6679 63.5626 12.5519 64.4873 11.6519C65.4105 10.7504 66.5351 10.3004 67.8565 10.3004C68.5127 10.3004 69.1398 10.4264 69.7349 10.6769C70.3316 10.9289 70.8092 11.2634 71.1663 11.6819L70.3621 12.4739C69.7563 11.7614 68.9216 11.4059 67.855 11.4059C66.8906 11.4059 66.0575 11.7389 65.354 12.4049C64.6506 13.0709 64.2996 13.9364 64.2996 14.9999C64.2996 16.0634 64.6506 16.9289 65.354 17.5949C66.0575 18.2609 66.8906 18.5939 67.855 18.5939C68.8774 18.5939 69.7304 18.2594 70.4125 17.5889C70.855 17.1524 71.1113 16.5449 71.18 15.7664H67.855V14.6849H72.2909C72.3366 14.9204 72.3565 15.1469 72.3565 15.3644Z" stroke="white" stroke-width="0.2" stroke-miterlimit="10"/>
<path d="M79.3911 11.6055H75.2223V14.4585H78.9822V15.54H75.2223V18.393H79.3911V19.5H74.0458V10.5H79.3911V11.6055Z" stroke="white" stroke-width="0.2" stroke-miterlimit="10"/>
<path d="M84.3518 19.5H83.1753V11.6055H80.6178V10.5H86.9092V11.6055H84.3518V19.5Z" stroke="white" stroke-width="0.2" stroke-miterlimit="10"/>
<path d="M91.461 19.5V10.5H92.6375V19.5H91.461Z" stroke="white" stroke-width="0.2" stroke-miterlimit="10"/>
<path d="M97.8549 19.5H96.6784V11.6055H94.1209V10.5H100.412V11.6055H97.8549V19.5Z" stroke="white" stroke-width="0.2" stroke-miterlimit="10"/>
<path d="M112.322 18.3375C111.422 19.2465 110.303 19.701 108.965 19.701C107.627 19.701 106.508 19.2465 105.609 18.3375C104.709 17.4285 104.26 16.3155 104.26 15C104.26 13.6845 104.709 12.5715 105.609 11.6625C106.508 10.7535 107.627 10.2975 108.965 10.2975C110.295 10.2975 111.412 10.755 112.316 11.6685C113.219 12.582 113.671 13.692 113.671 15C113.671 16.3155 113.221 17.4285 112.322 18.3375ZM106.478 17.583C107.155 18.258 107.984 18.594 108.965 18.594C109.946 18.594 110.776 18.2565 111.452 17.583C112.13 16.908 112.47 16.047 112.47 15C112.47 13.953 112.13 13.092 111.452 12.417C110.776 11.742 109.946 11.406 108.965 11.406C107.984 11.406 107.155 11.7435 106.478 12.417C105.802 13.092 105.461 13.953 105.461 15C105.461 16.047 105.802 16.908 106.478 17.583Z" stroke="white" stroke-width="0.2" stroke-miterlimit="10"/>
<path d="M115.322 19.5V10.5H116.753L121.203 17.5005H121.253L121.203 15.7665V10.5H122.379V19.5H121.151L116.495 12.159H116.445L116.495 13.893V19.5H115.322Z" stroke="white" stroke-width="0.2" stroke-miterlimit="10"/>
<g filter="url(#filter0_ii_2_79914)">
<path d="M15.9245 11.307C15.4805 11.769 15.218 12.486 15.218 13.4145V46.5885C15.218 47.5185 15.4805 48.234 15.9245 48.696L16.0374 48.804L34.9421 30.2205V30.0015V29.7825L16.0374 11.1975L15.9245 11.307Z" fill="url(#paint0_linear_2_79914)"/>
<path d="M41.2427 36.417L34.9421 30.2205V30.0015V29.7825L41.2442 23.5875L41.3861 23.667L48.8525 27.837C50.9842 29.028 50.9842 30.9765 48.8525 32.169L41.3861 36.339L41.2427 36.417Z" fill="url(#paint1_linear_2_79914)"/>
<g filter="url(#filter1_i_2_79914)">
<path d="M41.3862 36.3376L34.9406 30.0016L15.9246 48.6961C16.6265 49.4281 17.7877 49.5181 19.0954 48.7891L41.3862 36.3376Z" fill="url(#paint2_linear_2_79914)"/>
</g>
<path d="M41.3862 23.6655L19.0954 11.2155C17.7877 10.485 16.6265 10.5765 15.9246 11.3085L34.9422 30.003L41.3862 23.6655Z" fill="url(#paint3_linear_2_79914)"/>
</g>
<rect x="0.5" y="0.5" width="205" height="59" rx="4.5" stroke="#A6A6A6"/>
<defs>
<filter id="filter0_ii_2_79914" x="15.218" y="10.7114" width="35.2333" height="38.5812" filterUnits="userSpaceOnUse" color-interpolation-filters="sRGB">
<feFlood flood-opacity="0" result="BackgroundImageFix"/>
<feBlend mode="normal" in="SourceGraphic" in2="BackgroundImageFix" result="shape"/>
<feColorMatrix in="SourceAlpha" type="matrix" values="0 0 0 0 0 0 0 0 0 0 0 0 0 0 0 0 0 0 127 0" result="hardAlpha"/>
<feOffset dy="-0.15"/>
<feComposite in2="hardAlpha" operator="arithmetic" k2="-1" k3="1"/>
<feColorMatrix type="matrix" values="0 0 0 0 0 0 0 0 0 0 0 0 0 0 0 0 0 0 0.12 0"/>
<feBlend mode="normal" in2="shape" result="effect1_innerShadow_2_79914"/>
<feColorMatrix in="SourceAlpha" type="matrix" values="0 0 0 0 0 0 0 0 0 0 0 0 0 0 0 0 0 0 127 0" result="hardAlpha"/>
<feOffset dy="0.15"/>
<feComposite in2="hardAlpha" operator="arithmetic" k2="-1" k3="1"/>
<feColorMatrix type="matrix" values="0 0 0 0 1 0 0 0 0 1 0 0 0 0 1 0 0 0 0.25 0"/>
<feBlend mode="normal" in2="effect1_innerShadow_2_79914" result="effect2_innerShadow_2_79914"/>
</filter>
<filter id="filter1_i_2_79914" x="15.9246" y="30.0016" width="25.4615" height="19.291" filterUnits="userSpaceOnUse" color-interpolation-filters="sRGB">
<feFlood flood-opacity="0" result="BackgroundImageFix"/>
<feBlend mode="normal" in="SourceGraphic" in2="BackgroundImageFix" result="shape"/>
<feColorMatrix in="SourceAlpha" type="matrix" values="0 0 0 0 0 0 0 0 0 0 0 0 0 0 0 0 0 0 127 0" result="hardAlpha"/>
<feOffset dy="-0.15"/>
<feComposite in2="hardAlpha" operator="arithmetic" k2="-1" k3="1"/>
<feColorMatrix type="matrix" values="0 0 0 0 0 0 0 0 0 0 0 0 0 0 0 0 0 0 0.08 0"/>
<feBlend mode="normal" in2="shape" result="effect1_innerShadow_2_79914"/>
</filter>
<linearGradient id="paint0_linear_2_79914" x1="33.2664" y1="13.0635" x2="8.09706" y2="38.6678" gradientUnits="userSpaceOnUse">
<stop stop-color="#00A0FF"/>
<stop offset="0.0066" stop-color="#00A1FF"/>
<stop offset="0.2601" stop-color="#00BEFF"/>
<stop offset="0.5122" stop-color="#00D2FF"/>
<stop offset="0.7604" stop-color="#00DFFF"/>
<stop offset="1" stop-color="#00E3FF"/>
</linearGradient>
<linearGradient id="paint1_linear_2_79914" x1="51.6274" y1="30.0015" x2="14.7062" y2="30.0015" gradientUnits="userSpaceOnUse">
<stop stop-color="#FFE000"/>
<stop offset="0.4087" stop-color="#FFBD00"/>
<stop offset="0.7754" stop-color="#FFA500"/>
<stop offset="1" stop-color="#FF9C00"/>
</linearGradient>
<linearGradient id="paint2_linear_2_79914" x1="37.8858" y1="33.4424" x2="3.7531" y2="68.1651" gradientUnits="userSpaceOnUse">
<stop stop-color="#FF3A44"/>
<stop offset="1" stop-color="#C31162"/>
</linearGradient>
<linearGradient id="paint3_linear_2_79914" x1="11.1353" y1="0.26524" x2="26.3765" y2="15.7699" gradientUnits="userSpaceOnUse">
<stop stop-color="#32A071"/>
<stop offset="0.0685" stop-color="#2DA771"/>
<stop offset="0.4762" stop-color="#15CF74"/>
<stop offset="0.8009" stop-color="#06E775"/>
<stop offset="1" stop-color="#00F076"/>
</linearGradient>
</defs>
</svg>
