<svg width="100" height="65" viewBox="0 0 100 65" fill="none" xmlns="http://www.w3.org/2000/svg">
<path d="M53.067 13.582V13.4374C53.067 12.7622 53.2895 12.1593 53.7347 11.6288C54.1799 11.0983 54.7488 10.833 55.4413 10.833C56.1338 10.833 56.7521 11.05 57.2962 11.4841C57.8403 11.9182 58.1371 12.4969 58.1866 13.2203C58.2361 13.9438 58.0135 14.5466 57.5188 15.0289C57.0242 15.5112 56.4306 15.7523 55.7381 15.7523L55.2929 15.897L55.4413 16.114L55.2929 16.9098L54.9961 19.2248C55.095 19.3212 55.1445 19.4177 55.1445 19.5141L54.8477 20.961C54.7488 21.1539 54.6498 21.2986 54.5509 21.3951L54.4025 21.9738C54.2047 22.7455 54.0315 23.3724 53.8831 23.8547C53.7347 24.337 53.6111 24.7228 53.5121 25.0122V25.3016C53.4132 25.7839 53.339 26.1697 53.2895 26.4591C53.2401 26.7484 53.067 27.2307 52.7702 27.9059C52.5723 28.2917 52.5723 28.9187 52.7702 29.7868L52.9186 29.9315C52.9186 30.2209 53.0422 30.5585 53.2895 30.9443C53.5369 31.3301 53.6605 31.6677 53.6605 31.9571C53.7595 33.8863 53.6111 35.526 53.2153 36.8764L53.5121 37.7445C54.6993 38.3233 55.0456 38.9503 54.5509 39.6255L55.2929 39.9148C56.48 40.4936 57.321 41 57.8156 41.434C58.3103 41.8681 58.8049 42.3263 59.2996 42.8085C59.6953 42.905 59.9921 43.0497 60.1899 43.2426L60.6351 43.3873C62.7127 44.7377 64.7902 46.3775 66.8677 48.3066L67.4613 48.7407V48.8853L67.3129 49.1747L67.7581 49.4641H67.9065C68.2033 49.657 68.4011 49.7535 68.5001 49.7535H68.6485C68.7474 49.7535 68.8463 49.7052 68.9453 49.6088L69.2421 49.4641C69.4399 49.2712 69.6378 49.1265 69.8356 49.03H70.4292C70.5282 49.03 70.5282 49.0783 70.4292 49.1747L69.8356 49.4641L69.0937 50.3322H70.1324L71.1712 50.4769C71.468 50.3804 71.7153 50.284 71.9132 50.1875L72.6552 49.7535C72.9519 49.657 73.2487 49.7535 73.5455 50.0428H73.6939C73.7929 50.1393 73.7434 50.284 73.5455 50.4769L71.7648 52.0684C71.2701 52.4543 70.8249 52.6954 70.4292 52.7919L68.5001 54.094C68.4011 54.1905 68.3022 54.1905 68.2033 54.094L67.7581 53.5153L67.4613 52.9365L67.0903 52.4301L66.6451 51.8514L66.2741 51.4173L65.9774 51.0556L65.3838 50.6216C65.1859 50.6216 64.9881 50.5733 64.7902 50.4769L62.861 49.03C62.5643 49.03 62.218 48.8853 61.8223 48.596C60.3383 47.342 59.349 46.5704 58.8544 46.281L57.964 45.7023L56.1833 45.4129C55.5897 45.3164 54.7982 45.0271 53.8089 44.5448L52.6218 43.966C51.8303 43.5802 51.2862 43.3873 50.9894 43.3873L50.3958 43.0979C50.0001 43.0015 49.7033 42.905 49.5055 42.8085L49.2087 42.5192C49.0108 42.5192 48.8129 42.5674 48.6151 42.6639L45.6472 44.1107L41.9373 45.7023C40.948 46.4739 40.0082 47.1009 39.1178 47.5832L37.4854 48.3066L34.9627 50.0428C34.7648 50.2357 34.567 50.2357 34.3691 50.0428L34.0723 50.3322C33.7755 50.4287 33.5777 50.4769 33.4787 50.4769L32.8852 50.7663V51.0556H32.5884L32.2916 51.4897C32.0937 51.8755 31.8959 52.0925 31.698 52.1408C31.5001 52.189 31.3765 52.2613 31.327 52.3578C31.2775 52.4543 31.2281 52.5266 31.1786 52.5748L30.8818 52.8642L30.4366 53.1536L29.7689 53.0812L28.8785 53.2259L28.2849 53.3706C27.7903 53.4671 27.3945 53.3947 27.0977 53.1536C26.801 52.9124 26.5536 52.5507 26.3558 52.0684C26.1579 51.7791 26.2568 51.5379 26.6526 51.345L26.801 51.2003C26.8999 51.1039 27.0483 51.0556 27.2461 51.0556H28.1365L29.3237 50.6216L29.9173 50.4769C29.9173 50.284 29.9667 50.1393 30.0657 50.0428C30.1646 49.9464 30.313 49.8981 30.5108 49.8981V49.7535C30.4119 49.5605 30.3624 49.3676 30.3624 49.1747C30.2635 48.9818 30.2388 48.8371 30.2882 48.7407C30.3377 48.6442 30.3872 48.596 30.4366 48.596H30.5108L30.6592 49.03C30.7582 49.5123 30.9066 49.657 31.1044 49.4641L31.2528 49.1747C31.3517 48.9818 31.5001 48.8853 31.698 48.8853L31.9948 49.1747L32.2916 48.8853L32.1432 48.7407C32.1432 48.6442 32.1927 48.596 32.2916 48.596L32.8852 48.0172C33.3798 47.4385 33.9734 46.908 34.6659 46.4257C36.0509 45.3647 37.5349 44.5448 39.1178 43.966C39.6124 43.4837 40.1565 43.2426 40.7501 43.2426C41.1458 42.5674 41.7394 41.844 42.5309 41.0723C43.2234 40.59 43.718 40.2524 44.0148 40.0595C44.2127 39.6737 44.46 39.4808 44.7568 39.4808H44.9052L45.202 39.1914C45.3999 39.0949 45.5483 38.9985 45.6472 38.902V38.1786C45.6472 37.6963 45.6966 37.3105 45.7956 37.0211C45.8945 36.7317 46.1418 36.5871 46.5376 36.5871L47.1311 36.0083C46.9333 35.6225 46.8343 35.1884 46.8343 34.7061H46.6859C46.4881 34.4168 46.3892 34.1274 46.3892 33.838C46.0924 33.3557 45.8945 32.9699 45.7956 32.6805H45.3504C45.2515 32.9699 45.0041 33.1628 44.6084 33.2593L44.46 33.5487C44.0643 34.2239 43.718 34.7303 43.4212 35.0679C43.1245 35.4055 42.5803 35.8154 41.7889 36.2977C41.2942 36.78 40.948 37.3105 40.7501 37.8892C40.6512 38.1786 40.6512 38.468 40.7501 38.7573L40.6017 39.0467H40.7501C40.7501 39.2396 40.7996 39.3361 40.8985 39.3361H41.0469C41.2448 39.4325 41.3437 39.5531 41.3437 39.6978C41.3437 39.8425 41.1953 39.8907 40.8985 39.8425C40.6017 39.7943 40.3791 39.6978 40.2307 39.5531C40.0823 39.4084 39.9587 39.3361 39.8598 39.3361L39.4146 39.7701C39.2167 40.0595 39.0188 40.1801 38.821 40.1319C38.6231 40.0836 38.5737 40.0113 38.6726 39.9148L38.821 39.7701C38.9199 39.5772 38.9199 39.4808 38.821 39.4808L37.6338 39.7701C37.5349 39.8666 37.4112 39.8666 37.2628 39.7701C37.1144 39.6737 37.1392 39.5772 37.337 39.4808L38.079 39.1914C38.079 39.0949 38.0295 39.0467 37.9306 39.0467C37.5349 39.2396 37.1392 39.2879 36.7434 39.1914L36.0015 39.0467L35.8531 38.902C35.8531 38.8056 35.9025 38.7573 36.0015 38.7573C36.3972 38.8538 36.8918 38.8056 37.4854 38.6127L38.5242 38.1786L39.7114 36.8764L39.8598 36.5871C40.2555 35.8154 40.6759 35.1161 41.1211 34.4891C41.5663 33.8621 42.0362 33.3557 42.5309 32.9699L42.6793 32.3912C42.8771 32.0053 43.075 31.6677 43.2729 31.3784C43.4707 31.089 43.718 30.7032 44.0148 30.2209L44.46 29.6421C44.8557 29.0634 45.3009 28.774 45.7956 28.774L46.2408 28.34C46.3397 28.2435 46.3892 28.0988 46.3892 27.9059L46.6859 27.6165L46.5376 27.4719C45.944 26.9896 45.6472 26.5555 45.6472 26.1697C45.5483 25.4945 45.7708 24.9157 46.315 24.4335C46.8591 23.9512 47.4032 23.7341 47.9473 23.7824C48.4914 23.8306 48.9119 23.9994 49.2087 24.2888L49.5055 24.5781C49.6044 24.5781 49.6539 24.6264 49.6539 24.7228L50.2474 25.0122V25.4463C50.4453 25.6392 50.5442 25.7839 50.5442 25.8803C50.7421 25.5909 51.0389 25.2533 51.4346 24.8675L52.1766 22.5525C52.1766 22.1667 52.2755 21.7809 52.4734 21.3951L52.7702 20.961V20.6716L53.2153 18.9354H53.5121L53.9573 17.1992C54.0563 16.9098 54.0563 16.5722 53.9573 16.1864L53.3637 14.7395L53.067 13.582Z" fill="black"/>
</svg>
