<svg width="16" height="16" viewBox="0 0 16 16" fill="none" xmlns="http://www.w3.org/2000/svg">
<g clip-path="url(#clip0_2_83874)">
<path d="M7.99967 1.33301C5.41967 1.33301 3.33301 3.41967 3.33301 5.99967C3.33301 8.77967 6.27967 12.613 7.49301 14.073C7.75967 14.393 8.24634 14.393 8.51301 14.073C9.71968 12.613 12.6663 8.77967 12.6663 5.99967C12.6663 3.41967 10.5797 1.33301 7.99967 1.33301ZM7.99967 7.66634C7.07967 7.66634 6.33301 6.91967 6.33301 5.99967C6.33301 5.07967 7.07967 4.33301 7.99967 4.33301C8.91967 4.33301 9.66634 5.07967 9.66634 5.99967C9.66634 6.91967 8.91967 7.66634 7.99967 7.66634Z" fill="#1DB954"/>
</g>
<defs>
<clipPath id="clip0_2_83874">
<rect width="16" height="16" fill="white"/>
</clipPath>
</defs>
</svg>
