<svg width="153" height="55" viewBox="0 0 153 55" fill="none" xmlns="http://www.w3.org/2000/svg">
<path d="M23.1043 52C27.1052 52 30.6466 49.4025 31.8618 45.5767L45.9559 1.20271C46.1449 0.60764 45.7025 0 45.0802 0H42.7725C37.7258 0 33.27 3.30514 31.7889 8.14713L22.4638 38.6317C22.3854 38.8881 22.1494 39.0631 21.8822 39.0631C21.6152 39.0631 21.3793 38.8882 21.3008 38.632L9.61857 0.506209C9.52638 0.20533 9.24942 0 8.93578 0C2.8903 0 -1.40791 5.90297 0.428228 11.6839L11.1933 45.5767C12.4085 49.4025 15.9499 52 19.9508 52H23.1043Z" fill="#1DB954"/>
<path d="M64.7531 45.6494C73.2222 45.6494 78.5062 40.4878 78.5062 31.4114C78.5062 22.5096 73.1481 17.1984 64.7531 17.1984C56.4074 17.1984 51 22.5345 51 31.4114C51 40.4629 56.284 45.6494 64.7531 45.6494ZM64.7531 39.1662C61.7407 39.1662 59.8889 36.3984 59.8889 31.4364C59.8889 26.5491 61.7901 23.6816 64.7531 23.6816C67.7407 23.6816 69.642 26.5491 69.642 31.4364C69.642 36.3984 67.7407 39.1662 64.7531 39.1662Z" fill="#191414"/>
<path d="M91.7901 45.4C95.7901 45.4 98.9012 43.2306 99.9877 40.3382H100.16V45.001H108.852V9.01974H100.111V22.6343H99.9383C98.7531 19.5922 95.7901 17.4478 91.8889 17.4478C85.1728 17.4478 81.0741 22.6842 81.0741 31.3616C81.0741 40.1387 85.0988 45.4 91.7901 45.4ZM95.0741 24.3548C98.2099 24.3548 100.136 27.0727 100.136 31.4364C100.136 35.8499 98.2346 38.493 95.0741 38.493C91.9136 38.493 90.037 35.8249 90.037 31.4364C90.037 27.0727 91.9383 24.3548 95.0741 24.3548Z" fill="#191414"/>
<path d="M113.222 45.001H121.963V17.8468H113.222V45.001ZM117.593 15.6525C120.136 15.6525 122.062 13.7574 122.062 11.3138C122.062 8.87013 120.136 7 117.593 7C115.049 7 113.099 8.87013 113.099 11.3138C113.099 13.7574 115.049 15.6525 117.593 15.6525Z" fill="#191414"/>
<path d="M130.284 55C138.16 55 142.111 52.2073 144.407 44.9262L153 17.8468H143.765L138.926 38.3683H138.778L133.914 17.8468H124.259L133.321 45.001C133.37 45.1756 133.272 45.8488 133.272 45.9984C133.049 47.6442 131.741 48.3423 129 48.3423C128.852 48.3423 127.222 48.3174 127.099 48.2925V54.9751C127.222 55 130.16 55 130.284 55Z" fill="#191414"/>
</svg>
