<svg width="100" height="65" viewBox="0 0 100 65" fill="none" xmlns="http://www.w3.org/2000/svg">
<path fill-rule="evenodd" clip-rule="evenodd" d="M70.532 54.166H29.4645C28.5327 54.166 27.7773 53.4295 27.7773 52.5209V12.4773C27.7773 11.5687 28.5327 10.8327 29.4645 10.8327H70.532C71.4638 10.8327 72.2191 11.5687 72.2191 12.4773V52.5209C72.2191 53.4295 71.4638 54.166 70.532 54.166Z" fill="black"/>
<path d="M62.6237 24.4622H59.1274C58.9777 24.4622 58.8565 24.5783 58.8565 24.7214V40.2759C58.8565 40.4178 58.9777 40.5339 59.1274 40.5339H62.6237C62.7722 40.5339 62.8951 40.4177 62.8951 40.2759V24.7214C62.8951 24.5783 62.7722 24.4622 62.6237 24.4622ZM50.6858 24.4622H37.3677C37.218 24.4622 37.0977 24.5783 37.0977 24.7214V40.2759C37.0977 40.4178 37.218 40.5339 37.3677 40.5339H40.8649C41.0138 40.5339 41.1371 40.4177 41.1371 40.2759V28.0679C41.1371 27.9269 41.2574 27.81 41.4072 27.81H48.9403C51.0587 27.81 51.6601 29.392 51.6601 30.4125V40.2759C51.6601 40.4178 51.7817 40.5339 51.9314 40.5339H55.4265C55.5753 40.5339 55.6974 40.4177 55.6974 40.2759V29.2415C55.6974 28.3312 55.5851 27.0225 54.3807 25.8705C53.1206 24.6678 51.971 24.4622 50.6858 24.4622" fill="white"/>
<path d="M48.2371 30.6581H44.5655C44.4158 30.6581 44.293 30.7742 44.293 30.9164V40.2776C44.293 40.419 44.4158 40.5352 44.5655 40.5352H48.2371C48.3855 40.5352 48.5072 40.419 48.5072 40.2776V30.9164C48.5072 30.7742 48.3855 30.6581 48.2371 30.6581Z" fill="white"/>
</svg>
