<svg width="340" height="328" viewBox="0 0 340 328" fill="none" xmlns="http://www.w3.org/2000/svg">
<path d="M323.473 327.564L322.976 327.379C322.867 327.338 312.001 323.199 306.911 313.815C301.821 304.43 304.314 293.13 304.339 293.018L304.457 292.503L304.953 292.688C305.062 292.729 315.928 296.868 321.018 306.252C326.108 315.637 323.616 326.937 323.59 327.05L323.473 327.564ZM307.726 313.378C312.03 321.313 320.616 325.38 322.791 326.309C323.205 323.99 324.502 314.616 320.203 306.689C315.904 298.763 307.314 294.69 305.138 293.759C304.724 296.078 303.427 305.452 307.726 313.378Z" fill="#3F3D56"/>
<path d="M310.801 310.522C319.948 315.993 323.471 326.861 323.471 326.861C323.471 326.861 312.163 328.858 303.016 323.386C293.869 317.915 290.346 307.047 290.346 307.047C290.346 307.047 301.654 305.051 310.801 310.522Z" fill="#1DB954"/>
<path d="M163.539 175.785C163.982 175.103 164.565 174.523 165.25 174.081C165.935 173.639 166.706 173.346 167.513 173.221C168.32 173.096 169.144 173.142 169.932 173.355C170.719 173.569 171.453 173.946 172.084 174.461C172.283 174.625 172.47 174.803 172.644 174.993L195.424 171.696L196.692 154.665C196.789 153.359 197.404 152.144 198.402 151.288C199.399 150.433 200.698 150.006 202.013 150.103C203.327 150.199 204.548 150.811 205.409 151.803C206.27 152.795 206.699 154.086 206.602 155.393C206.599 155.423 206.597 155.454 206.594 155.484L204.373 179.381L204.363 179.434C204.074 180.352 203.494 181.154 202.711 181.719C201.928 182.285 200.982 182.584 200.014 182.573L173.22 182.113C173.116 182.271 173.004 182.423 172.884 182.569C172.365 183.196 171.72 183.708 170.989 184.069C170.258 184.431 169.458 184.636 168.642 184.669C167.827 184.702 167.013 184.563 166.255 184.262C165.496 183.961 164.811 183.504 164.243 182.921C164.127 182.803 164.018 182.682 163.915 182.557C163.142 181.611 162.69 180.447 162.623 179.231C162.555 178.015 162.876 176.809 163.539 175.785Z" fill="#FFB7B7"/>
<path d="M209.465 320.99L202.968 320.989L199.877 296.075L209.466 296.075L209.465 320.99Z" fill="#FFB7B7"/>
<path d="M211.122 327.249L190.173 327.248V326.985C190.173 324.835 191.032 322.774 192.561 321.254C194.09 319.734 196.164 318.88 198.327 318.879H198.327L211.122 318.88L211.122 327.249Z" fill="#191414"/>
<path d="M254.864 315.134L248.715 317.219L237.699 294.63L246.775 291.553L254.864 315.134Z" fill="#FFB7B7"/>
<path d="M258.466 320.528L238.638 327.251L238.553 327.002C237.855 324.967 237.998 322.74 238.952 320.81C239.906 318.88 241.591 317.406 243.638 316.712L243.638 316.712L255.748 312.605L258.466 320.528Z" fill="#191414"/>
<path d="M216.619 103.145C216.619 103.145 210.152 101.022 205.995 109.515C201.838 118.008 195.372 127.35 195.372 127.35L199.067 128.2C199.067 128.2 199.991 122.254 202.3 121.405L201.376 129.049C201.376 129.049 229.091 137.966 241.562 128.2L241.1 125.227C241.1 125.227 242.948 125.652 242.948 128.2L244.333 126.926C244.333 126.926 242.948 124.378 238.791 120.981C236.062 118.751 235.124 114.509 234.802 111.856C234.547 109.611 233.578 107.505 232.037 105.844C229.274 102.9 224.241 99.7716 216.619 103.145Z" fill="#191414"/>
<path d="M219.002 132.819C225.525 132.819 230.813 127.562 230.813 121.077C230.813 114.592 225.525 109.334 219.002 109.334C212.479 109.334 207.191 114.592 207.191 121.077C207.191 127.562 212.479 132.819 219.002 132.819Z" fill="#FFB7B7"/>
<path d="M203.254 142.488L201.107 141.776C201.107 141.776 196.812 143.555 196.812 146.758C196.812 149.96 196.096 162.77 196.096 162.77L205.76 163.838L203.254 142.488Z" fill="#CBCBCB"/>
<path d="M241.69 212.479C240.8 211.486 240.297 210.209 240.273 208.879C240.25 207.55 240.707 206.256 241.563 205.233L235.534 155.039C235.475 153.855 235.891 152.697 236.69 151.817C237.489 150.938 238.607 150.41 239.797 150.349C240.988 150.288 242.154 150.699 243.04 151.492C243.926 152.285 244.459 153.395 244.523 154.578C244.524 154.595 244.524 154.611 244.525 154.628L249.918 204.875C250.114 205.07 250.294 205.28 250.457 205.502C250.89 206.097 251.2 206.771 251.371 207.485C251.542 208.199 251.569 208.939 251.452 209.664C251.335 210.388 251.076 211.083 250.688 211.708C250.301 212.333 249.794 212.876 249.196 213.306C249.134 213.35 249.071 213.394 249.007 213.436C248.315 213.891 247.529 214.189 246.707 214.307C245.885 214.425 245.047 214.361 244.253 214.119C243.262 213.82 242.374 213.252 241.69 212.479Z" fill="#FFB7B7"/>
<path d="M236.168 162.771L245.832 161.703C245.832 161.703 245.116 148.893 245.116 145.691C245.116 142.488 240.821 140.709 240.821 140.709L238.674 141.421L236.168 162.771Z" fill="#CBCBCB"/>
<path d="M204.687 180.543C204.687 180.543 196.456 195.506 196.456 213.654C196.456 231.801 195.74 315.066 195.74 315.066C195.74 315.066 206.477 320.047 212.919 313.998L218.646 221.838L241.194 312.219C241.194 312.219 251.931 314.354 256.942 310.796L247.279 247.813C247.279 247.813 243.342 188.745 232.604 184.475C221.867 180.205 204.687 180.543 204.687 180.543Z" fill="#191414"/>
<path d="M206.241 121.151C210.422 118.142 213.807 114.677 216.045 110.555C216.045 110.555 223.719 119.031 228.408 119.455C233.097 119.879 228.834 109.284 228.834 109.284L220.308 107.165L212.209 108.012L205.814 112.25L206.241 121.151Z" fill="#191414"/>
<path d="M230.814 138.574C230.814 138.574 231.154 138.392 210.772 139.13L202.241 141.466L201.107 141.777C201.107 141.777 202.181 163.126 205.044 167.041C207.907 170.955 207.192 173.09 206.476 173.446C205.76 173.801 203.97 173.09 205.044 174.869C206.118 176.648 207.55 175.581 206.118 176.648C204.686 177.716 203.97 181.63 203.97 181.63L235.466 185.9C235.466 185.9 236.54 172.022 239.403 164.906C242.267 157.789 242.982 154.942 242.982 154.942L240.835 140.709L230.814 138.574Z" fill="#CBCBCB"/>
<path d="M170.934 77.879H169.123V28.5502C169.123 20.9782 166.097 13.7164 160.712 8.36217C155.326 3.00798 148.022 1.22057e-05 140.406 1.07348e-10L35.286 1.07352e-10C27.6698 -2.07495e-05 20.3656 3.00791 14.9801 8.36209C9.59465 13.7163 6.56912 20.9781 6.56909 28.5501V299.172C6.56908 306.744 9.59459 314.006 14.98 319.36C20.3655 324.714 27.6697 327.722 35.2859 327.722H140.406C144.177 327.722 147.911 326.983 151.395 325.549C154.879 324.114 158.045 322.011 160.712 319.36C163.378 316.709 165.493 313.561 166.937 310.098C168.38 306.634 169.123 302.921 169.123 299.172V112.992H170.934L170.934 77.879Z" fill="#191414"/>
<path d="M163.011 28.7508V298.974C163.013 301.772 162.461 304.542 161.387 307.128C160.312 309.714 158.736 312.063 156.748 314.043C154.76 316.023 152.4 317.594 149.801 318.667C147.202 319.74 144.417 320.294 141.603 320.296H35.9401C30.2562 320.3 24.8035 318.059 20.7816 314.066C16.7597 310.073 14.4979 304.655 14.4939 299.004V28.7508C14.4919 25.9527 15.0443 23.1817 16.1195 20.5959C17.1946 18.0101 18.7716 15.6602 20.7602 13.6803C22.7489 11.7004 25.1103 10.1293 27.7097 9.05671C30.3091 7.98412 33.0955 7.43106 35.9098 7.42909H48.7531C48.1221 8.96713 47.8813 10.6359 48.0518 12.2882C48.2224 13.9406 48.799 15.526 49.7311 16.9045C50.6631 18.2831 51.9219 19.4126 53.3965 20.1936C54.8711 20.9745 56.5163 21.3829 58.187 21.3828H118.41C120.081 21.3829 121.726 20.9745 123.201 20.1936C124.675 19.4126 125.934 18.2831 126.866 16.9045C127.798 15.526 128.375 13.9406 128.545 12.2882C128.716 10.6359 128.475 8.96713 127.844 7.42909H141.565C147.247 7.42402 152.699 9.66353 156.721 13.655C160.743 17.6464 163.006 23.0627 163.011 28.7125V28.7508L163.011 28.7508Z" fill="white"/>
<path d="M163.012 68.7286V59.5243H149V8.74438C146.62 7.87057 144.102 7.42486 141.565 7.42812H139.742V59.5243H91.1371V21.3818H81.8791V59.5243H41.1439V7.42816H35.941C34.5802 7.42605 33.2222 7.55397 31.8859 7.81014V59.5243H14.4949V68.7286H31.8859V90.0183L14.4951 100V110.631L31.8859 100.649V163.993H14.4949V173.197H31.8859V264.78H14.4949V273.984H31.8859V319.913C33.2222 320.169 34.5802 320.297 35.9411 320.295H41.1439V273.984H81.8791V320.295H91.1371V273.984H139.742V320.295H141.565C144.102 320.298 146.62 319.853 149 318.979V273.984H163.012V264.78H149V224.741H162.887V215.537H149V173.197H163.012V163.993H149V107.847H163.012V98.6425H149V68.7286L163.012 68.7286ZM68.9785 68.7286L68.9783 68.7287L41.1441 84.7074L41.1439 84.7075V68.7286H68.9785ZM41.1439 95.3338L41.1441 95.3337L81.8791 71.9504V163.993H41.1439V95.3338ZM41.1439 264.78V173.197H81.8791V264.78H41.1439ZM139.742 264.78H91.1371V224.741H139.742V264.78ZM139.742 215.537H91.1371V173.197H139.742V215.537ZM139.742 163.993H91.1371V107.847H139.742V163.993ZM139.742 98.6425H91.1371V68.7286H139.742V98.6425Z" fill="#E5E5E5"/>
<path d="M170.755 98.8135C170.755 128.043 117.521 193.157 117.521 193.157C117.521 193.157 64.2876 128.043 64.2876 98.8135C64.2876 84.777 69.8961 71.3154 79.8793 61.3902C89.8625 51.4649 103.403 45.8889 117.521 45.8889C131.639 45.8889 145.18 51.4649 155.163 61.3902C165.146 71.3154 170.755 84.777 170.755 98.8135Z" fill="#1DB954"/>
<path d="M149.001 96.5119C149.001 102.701 147.154 108.752 143.696 113.898C140.237 119.045 135.321 123.056 129.569 125.424C123.817 127.793 117.488 128.413 111.382 127.205C105.276 125.998 99.6678 123.017 95.2656 118.641C90.8634 114.264 87.8655 108.688 86.651 102.617C85.4364 96.5466 86.0598 90.2544 88.4422 84.536C90.8246 78.8177 94.8592 73.9302 100.036 70.4915C105.212 67.0528 111.298 65.2174 117.523 65.2174C121.655 65.2155 125.747 66.0227 129.565 67.593C133.383 69.1632 136.852 71.4657 139.775 74.369C142.698 77.2723 145.017 80.7195 146.6 84.5139C148.183 88.3083 148.999 92.3754 149.001 96.4832V96.5119Z" fill="white"/>
<path d="M117.412 108.866C123.888 108.866 129.138 103.647 129.138 97.2076C129.138 90.7687 123.888 85.5489 117.412 85.5489C110.935 85.5489 105.685 90.7687 105.685 97.2076C105.685 103.647 110.935 108.866 117.412 108.866Z" fill="#1DB954"/>
<path d="M134.431 123.837C129.376 127.033 123.509 128.73 117.519 128.729C111.528 128.728 105.662 127.029 100.607 123.832C101.659 120.179 103.878 116.966 106.93 114.678C109.981 112.391 113.699 111.154 117.521 111.154C121.343 111.155 125.061 112.393 128.112 114.681C131.163 116.969 133.381 120.183 134.431 123.837Z" fill="#1DB954"/>
<path d="M117.521 231.355C125.446 231.355 131.87 224.967 131.87 217.088C131.87 209.209 125.446 202.821 117.521 202.821C109.595 202.821 103.171 209.209 103.171 217.088C103.171 224.967 109.595 231.355 117.521 231.355Z" fill="#1DB954"/>
</svg>
