<svg width="100" height="65" viewBox="0 0 100 65" fill="none" xmlns="http://www.w3.org/2000/svg">
<path d="M20.0233 45.8544C17.7313 45.7656 15.8561 45.1541 14.3898 44.0184C14.11 43.8015 13.4432 43.151 13.2195 42.8766C12.6249 42.1476 12.2207 41.4382 11.9511 40.6511C11.1214 38.2281 11.5484 35.0487 13.1724 31.5593C14.5629 28.5719 16.7085 25.609 20.4519 21.5054C21.0033 20.9016 22.6453 19.1357 22.6559 19.1357C22.6599 19.1357 22.5704 19.2868 22.4577 19.4709C21.4844 21.0604 20.6516 22.9327 20.1979 24.5537C19.4691 27.1545 19.557 29.3866 20.4554 31.1173C21.0751 32.3096 22.1375 33.3424 23.3322 33.9133C25.4236 34.9124 28.4856 34.9951 32.225 34.1552C32.4825 34.097 45.2399 30.7951 60.5751 26.8174C75.9102 22.8394 88.4593 19.5872 88.4612 19.5899C88.4655 19.5933 52.8333 34.4594 34.3361 42.1718C31.4067 43.3928 30.6234 43.7012 29.2462 44.1726C25.7258 45.378 22.5723 45.9531 20.0233 45.8544Z" fill="black"/>
</svg>
