<svg width="610" height="403" viewBox="0 0 610 403" fill="none" xmlns="http://www.w3.org/2000/svg">
<path d="M445.971 402.999C429.105 400.36 412.889 398.116 397.322 396.265L403.316 384.283C401.235 383.589 392.219 390.522 392.219 390.522L399.848 355.861C389.445 357.247 384.59 392.601 384.59 392.601L372.799 380.817L378.603 394.159C330.967 389.156 289.862 387.595 255.309 387.953L260.44 377.697C258.359 377.004 249.342 383.936 249.342 383.936L256.972 349.275C246.568 350.662 241.713 386.016 241.713 386.016L229.922 374.231L236.07 388.363C212.401 389.05 188.783 390.951 165.309 394.058C170.429 378.117 188.308 362.793 188.308 362.793C174.561 367.068 167.409 374.032 163.707 380.487C162.958 347.737 167.999 315.112 178.598 284.113C178.598 284.113 150.855 346.502 155.016 388.095L155.544 395.484C131.408 399.247 119.297 402.999 119.297 402.999H445.971Z" fill="#191414" fill-opacity="0.75"/>
<path d="M509.549 317.135C507.903 317.135 506.294 316.647 504.925 315.733C503.557 314.819 502.49 313.52 501.86 312C501.23 310.48 501.065 308.807 501.386 307.194C501.708 305.58 502.5 304.098 503.664 302.935C504.828 301.771 506.311 300.979 507.926 300.658C509.54 300.337 511.214 300.502 512.735 301.131C514.255 301.761 515.555 302.827 516.47 304.195C517.384 305.563 517.872 307.171 517.872 308.817C517.87 311.022 516.992 313.136 515.432 314.696C513.872 316.255 511.756 317.133 509.549 317.135ZM509.549 301.884C508.178 301.884 506.837 302.291 505.696 303.053C504.556 303.814 503.667 304.897 503.142 306.164C502.617 307.431 502.479 308.824 502.747 310.169C503.015 311.514 503.675 312.749 504.645 313.718C505.615 314.688 506.851 315.348 508.196 315.616C509.542 315.883 510.936 315.746 512.204 315.221C513.471 314.696 514.554 313.808 515.316 312.668C516.078 311.528 516.485 310.188 516.485 308.817C516.483 306.979 515.752 305.217 514.452 303.917C513.151 302.618 511.388 301.887 509.549 301.884Z" fill="#1DB954"/>
<path d="M576.016 401.909H562.324V388.225H576.016V401.909ZM563.377 400.857H574.963V389.277H563.377V400.857Z" fill="#191414"/>
<path d="M112.46 402.658L103.121 392.651L113.134 383.316L122.473 393.324L112.46 402.658ZM104.61 392.702L112.512 401.17L120.984 393.272L113.082 384.804L104.61 392.702Z" fill="#1DB954"/>
<path d="M383.877 92.7242V138.254C383.876 138.675 383.708 139.078 383.41 139.376C383.113 139.673 382.71 139.841 382.289 139.842H381.158V377.025C381.158 383.588 378.549 389.883 373.906 394.524C369.262 399.165 362.964 401.772 356.397 401.773H208.118C204.867 401.772 201.647 401.132 198.644 399.888C195.64 398.644 192.911 396.821 190.613 394.523C188.314 392.225 186.491 389.497 185.247 386.495C184.003 383.492 183.364 380.274 183.364 377.025V148.16H182.546C182.249 148.161 181.964 148.044 181.753 147.834C181.543 147.625 181.424 147.341 181.422 147.044V121.132C181.422 120.985 181.451 120.839 181.508 120.702C181.564 120.566 181.647 120.442 181.751 120.338C181.855 120.234 181.979 120.151 182.116 120.095C182.252 120.038 182.398 120.009 182.546 120.009H183.364V110.249H182.539C182.227 110.247 181.929 110.123 181.709 109.902C181.489 109.681 181.366 109.382 181.367 109.07V83.5114C181.367 83.2009 181.491 82.9034 181.711 82.6839C181.93 82.4644 182.228 82.3407 182.539 82.3399H183.364V69.0163H182.525C182.388 69.0165 182.253 68.9897 182.127 68.9375C182 68.8853 181.885 68.8088 181.789 68.7122C181.692 68.6156 181.616 68.5009 181.563 68.3746C181.511 68.2484 181.484 68.1131 181.485 67.9765V54.029C181.484 53.7524 181.593 53.4869 181.788 53.2906C181.983 53.0944 182.248 52.9835 182.525 52.9823H183.364V24.7408C183.364 18.1792 185.972 11.8864 190.615 7.24667C195.257 2.60692 201.553 0.000238991 208.118 2.53214e-10H356.397C362.963 -2.96636e-05 369.26 2.60635 373.904 7.24595C378.547 11.8856 381.156 18.1785 381.158 24.7408V91.1367H382.289C382.71 91.1379 383.113 91.3055 383.41 91.6029C383.708 91.9004 383.876 92.3035 383.877 92.7242Z" fill="#191414"/>
<path d="M289.401 12.6914H265.306C264.332 12.6914 263.543 13.4803 263.543 14.4535V16.5349C263.543 17.5081 264.332 18.297 265.306 18.297H289.401C290.374 18.297 291.164 17.5081 291.164 16.5349V14.4535C291.164 13.4803 290.374 12.6914 289.401 12.6914Z" fill="#E6E8EC"/>
<path d="M298.521 18.6735C300.278 18.6735 301.702 17.25 301.702 15.494C301.702 13.738 300.278 12.3145 298.521 12.3145C296.764 12.3145 295.34 13.738 295.34 15.494C295.34 17.25 296.764 18.6735 298.521 18.6735Z" fill="#E6E8EC"/>
<path d="M369.301 29.6352V379.077C369.304 381.349 368.811 383.595 367.858 385.657C366.904 387.72 365.513 389.55 363.781 391.021C360.939 393.442 357.326 394.772 353.592 394.772H211.652C209.126 394.775 206.637 394.169 204.397 393.004C203.871 392.734 203.361 392.434 202.871 392.103C200.738 390.664 198.99 388.724 197.782 386.453C196.574 384.182 195.942 381.649 195.942 379.077V29.6352C195.942 27.5733 196.348 25.5315 197.138 23.6265C197.927 21.7215 199.084 19.9906 200.543 18.5326C202.002 17.0745 203.734 15.918 205.64 15.129C207.546 14.3399 209.589 13.9339 211.652 13.934H232.896V16.6583C232.896 20.0871 234.259 23.3755 236.685 25.8C239.11 28.2246 242.4 29.5867 245.831 29.5867H318.018C321.449 29.5867 324.739 28.2246 327.165 25.8C329.591 23.3755 330.954 20.0871 330.954 16.6583V13.934H353.592C355.655 13.9333 357.698 14.339 359.605 15.1278C361.511 15.9166 363.243 17.0731 364.702 18.5313C366.161 19.9894 367.318 21.7206 368.107 23.6258C368.896 25.5311 369.302 27.5731 369.301 29.6352Z" fill="#1DB954"/>
<path opacity="0.3" d="M369.301 329.055V379.077C369.304 381.349 368.811 383.595 367.858 385.657C366.904 387.72 365.513 389.55 363.781 391.021C360.939 393.442 357.326 394.772 353.592 394.771H211.652C209.126 394.775 206.637 394.169 204.397 393.004C203.871 392.734 203.361 392.433 202.871 392.103C200.738 390.664 198.99 388.724 197.782 386.453C196.574 384.182 195.942 381.649 195.942 379.077V329.076C219.743 307.692 250.615 295.861 282.618 295.857C314.621 295.853 345.495 307.677 369.301 329.055Z" fill="white"/>
<path opacity="0.3" d="M360.862 392.989C358.621 394.166 356.125 394.778 353.594 394.771H211.653C209.128 394.775 206.639 394.168 204.398 393.003C210.824 377.557 221.683 364.359 235.605 355.074C249.527 345.789 265.889 340.834 282.626 340.832C299.363 340.831 315.725 345.783 329.649 355.066C343.572 364.348 354.434 377.544 360.862 392.989Z" fill="white"/>
<path opacity="0.3" d="M329.969 393.828C328.612 394.54 327.102 394.91 325.57 394.906H239.679C238.151 394.909 236.644 394.542 235.289 393.837C239.177 384.49 245.748 376.503 254.173 370.885C262.597 365.266 272.498 362.267 282.626 362.267C292.754 362.266 302.655 365.263 311.081 370.88C319.506 376.497 326.079 384.482 329.969 393.828Z" fill="white"/>
<path d="M318.73 149.214C304.492 149.214 288.866 146.505 276.667 137.36C259.684 124.629 238.759 125.309 224.196 128.121C214.523 130.005 205.134 133.131 196.263 137.421L195.621 136.191C204.601 131.846 214.105 128.678 223.897 126.767C238.746 123.895 260.099 123.208 277.5 136.252C310.098 160.687 368.468 138.74 369.053 138.517L369.55 139.811C358.604 143.711 347.283 146.465 335.769 148.03C330.121 148.8 324.429 149.196 318.73 149.214Z" fill="white"/>
<path opacity="0.3" d="M195.934 136.807C195.934 136.807 243.79 125.222 277.082 141.084C310.374 156.946 369.328 140.966 369.328 140.966" fill="white"/>
<path opacity="0.3" d="M241.116 154.803C235.334 154.777 229.569 154.201 223.897 153.084C214.105 151.173 204.601 148.006 195.621 143.66L196.263 142.43C205.134 146.72 214.523 149.846 224.196 151.73C238.758 154.542 259.683 155.222 276.667 142.491C294.053 129.458 318.405 129.495 335.769 131.821C347.283 133.386 358.604 136.14 369.55 140.04L369.053 141.334C368.467 141.11 310.098 119.163 277.5 143.599C266.089 152.153 252.977 154.803 241.116 154.803Z" fill="white"/>
<path opacity="0.3" d="M241.353 149.221C217.332 149.221 196 140.608 195.68 140.476L196.208 139.194C196.683 139.39 244.126 158.534 276.732 139.239C309.902 119.607 368.912 137.131 369.504 137.31L369.102 138.637C368.516 138.459 310.084 121.111 277.439 140.431C266.298 147.025 253.482 149.221 241.353 149.221Z" fill="white"/>
<path opacity="0.3" d="M195.942 138.768C195.942 138.768 243.792 154.63 277.084 138.768C310.375 122.906 369.301 137.269 369.301 137.269" fill="white"/>
<path d="M381.652 181.205V201.414C381.652 201.414 383.27 224.048 392.167 235.365C392.167 235.365 406.725 255.979 408.747 251.533L406.256 236.895L397.828 228.899L393.38 203.839L392.167 181.205H381.652Z" fill="#FFB8B8"/>
<path d="M471.026 363.896V378.851L458.895 383.297V365.917L471.026 363.896Z" fill="#FFB8B8"/>
<path d="M446.356 362.28L454.444 380.467L443.121 385.318L440.695 367.534L446.356 362.28Z" fill="#FFB8B8"/>
<path d="M466.576 222.837C466.576 222.837 482.752 368.747 476.686 369.151C470.62 369.555 458.893 377.234 458.893 371.98C458.893 366.726 449.592 298.419 449.592 298.419L440.695 263.255V311.757L449.996 366.726C449.996 366.726 441.099 378.447 434.629 371.576L420.88 317.82C420.88 317.82 402.682 236.175 403.491 229.708C403.491 229.708 445.143 194.14 466.576 222.837Z" fill="#20252D"/>
<path d="M463.339 379.659C463.339 379.659 466.575 372.788 473.854 377.234L479.919 384.509C479.919 384.509 495.558 397.454 484.461 400.227C473.023 403.085 466.17 400.044 466.17 400.044C466.17 400.044 464.148 398.832 462.531 398.832C460.913 398.832 457.273 396.002 457.273 395.194C457.273 394.386 458.487 380.063 458.487 380.063C458.945 379.84 459.459 379.759 459.964 379.831C460.469 379.903 460.94 380.125 461.317 380.467C462.531 381.68 463.339 379.659 463.339 379.659Z" fill="#313030"/>
<path d="M439.481 377.234C439.481 377.234 447.164 371.171 450.804 378.042C450.804 378.042 453.095 378.851 453.365 378.042C453.634 377.234 455.656 376.83 455.656 381.276C455.656 385.722 457.852 396.811 455.83 397.215C453.808 397.619 451.786 398.832 452.191 400.448C452.595 402.065 449.995 402.293 440.694 401.889C431.393 401.485 430.988 397.847 430.988 397.847C430.988 397.847 430.988 392.593 433.415 389.763C435.841 386.934 439.481 377.234 439.481 377.234Z" fill="#313030"/>
<path d="M424.521 112.494C424.521 112.494 422.499 127.449 435.439 132.703C448.38 137.958 406.727 155.337 402.683 145.233C398.639 135.128 403.492 131.895 403.492 131.895C403.492 131.895 407.536 127.853 403.897 116.94L424.521 112.494Z" fill="#FFB8B8"/>
<path d="M411.579 123.004C421.406 123.004 429.372 115.042 429.372 105.22C429.372 95.3978 421.406 87.4357 411.579 87.4357C401.752 87.4357 393.785 95.3978 393.785 105.22C393.785 115.042 401.752 123.004 411.579 123.004Z" fill="#FFB8B8"/>
<path d="M432.203 137.554C432.203 137.554 420.071 144.021 408.343 139.171C396.616 134.321 397.02 155.338 397.02 155.338L403.086 171.101L445.143 167.059L442.312 142.809L432.203 137.554Z" fill="#F2F2F2"/>
<path d="M426.175 123.724C428.329 124.181 430.353 125.117 432.096 126.461C433.84 127.806 435.258 129.525 436.247 131.492L455.657 137.554L460.51 144.425L454.849 194.14C454.849 194.14 465.363 204.244 465.363 209.903C465.363 215.561 478.303 234.962 471.833 232.537C465.363 230.112 453.635 221.624 453.635 221.624C453.635 221.624 424.115 222.837 414.814 230.92C405.513 239.004 401.873 236.579 401.873 236.579C401.873 236.579 392.168 194.544 391.763 188.077C391.359 181.61 380.036 142.809 380.036 142.809L400.256 131.492L405.406 125.651L419.666 148.467L432.607 132.704C432.607 132.704 426.214 127.679 426.175 123.724Z" fill="#191414"/>
<path d="M466.577 175.547L469.003 188.481C469.003 188.481 479.922 228.899 478.304 242.641C478.304 242.641 479.518 273.359 472.643 269.721C465.768 266.084 469.408 243.854 469.408 243.854L459.702 203.84L454.445 180.397L466.577 175.547Z" fill="#FFB8B8"/>
<path d="M456.468 142L460.512 144.425C460.512 144.425 475.879 176.355 472.239 178.781C468.599 181.206 452.828 186.46 452.828 186.46L456.468 142Z" fill="#191414"/>
<path d="M389.743 142.808L380.239 142.605L378.016 146.445L380.846 185.651L395.404 188.884L389.743 142.808Z" fill="#191414"/>
<path d="M426.068 90.1791L429.275 89.0134C429.275 89.0134 422.569 82.3111 413.239 82.8939L415.863 80.2713C415.863 80.2713 409.449 77.94 403.618 84.0595C400.553 87.2764 397.006 91.0577 394.795 95.3173H391.36L392.794 98.1828L387.777 101.048L392.926 100.534C392.438 103.007 392.606 105.566 393.413 107.955L394.58 111.16C394.58 111.16 399.245 101.835 399.245 100.67V103.584C399.245 103.584 402.452 100.961 402.452 99.2126L404.201 101.252L405.076 98.047L415.863 101.252L414.114 98.6298L420.82 99.504L418.196 96.2985C418.196 96.2985 425.776 100.087 426.068 103.292C426.36 106.498 428.361 110.676 428.361 110.676L430.787 107.847C430.787 107.847 434.523 94.5501 426.068 90.1791Z" fill="#2F2E41"/>
<path d="M426.541 109.059C427.323 109.059 427.957 107.431 427.957 105.422C427.957 103.413 427.323 101.784 426.541 101.784C425.759 101.784 425.126 103.413 425.126 105.422C425.126 107.431 425.759 109.059 426.541 109.059Z" fill="#FFB8B8"/>
<path d="M28.8752 379.198C37.4953 395.176 55.7902 402.035 55.7902 402.035C55.7902 402.035 60.1091 382.989 51.4891 367.011C42.869 351.033 24.5742 344.174 24.5742 344.174C24.5742 344.174 20.2552 363.22 28.8752 379.198Z" fill="#191414"/>
<path d="M34.8012 373.942C50.364 383.301 56.3577 401.889 56.3577 401.889C56.3577 401.889 37.1192 405.304 21.5564 395.946C5.99371 386.588 0 368 0 368C0 368 19.2385 364.584 34.8012 373.942Z" fill="#1DB954"/>
<path opacity="0.3" d="M195.942 136.806C195.942 136.806 243.792 111.85 277.084 136.806C310.375 161.762 369.301 139.164 369.301 139.164" fill="white"/>
<path d="M282.806 390.747C287.019 390.747 290.435 387.333 290.435 383.122C290.435 378.911 287.019 375.497 282.806 375.497C278.592 375.497 275.176 378.911 275.176 383.122C275.176 387.333 278.592 390.747 282.806 390.747Z" fill="white"/>
</svg>
