<svg width="32" height="32" viewBox="0 0 32 32" fill="none" xmlns="http://www.w3.org/2000/svg">
<path fill-rule="evenodd" clip-rule="evenodd" d="M16 32C7.16344 32 0 24.8366 0 16C0 7.16344 7.16344 0 16 0C24.8366 0 32 7.16344 32 16C32 24.8366 24.8366 32 16 32ZM19.4198 16.1775L9.79037 6.42177C9.39264 6.51163 9.06669 6.8603 9.06669 7.56114V24.8278C9.06669 25.4878 9.3231 25.952 9.79727 25.9983L19.4198 16.1775ZM19.855 15.7153L22.4282 13.1089C22.4282 13.1089 11.2461 6.9295 10.5767 6.55958C10.3193 6.41734 10.0388 6.36771 9.79048 6.42372L19.855 15.7153ZM20.2974 16.1624L23.2011 18.8033C23.2011 18.8033 26.49 16.9798 26.6307 16.9017C27.1055 16.6385 27.6029 15.9668 26.6307 15.4299C26.3838 15.2932 23.2162 13.5433 23.2162 13.5433L20.2974 16.1624ZM9.79742 25.9978C10.0147 26.0258 10.2761 25.9675 10.5767 25.8008C11.1991 25.4558 17.8829 21.75 22.4311 19.2284L19.8551 16.5671L9.79742 25.9978Z" fill="#F9F9F9"/>
</svg>
