<svg width="100" height="65" viewBox="0 0 100 65" fill="none" xmlns="http://www.w3.org/2000/svg">
<path d="M52.9968 13.9844C52.745 14.0207 52.503 14.9244 52.0166 15.3954C51.6612 15.7347 51.2166 15.7142 50.9812 16.1342C50.8914 16.2904 50.9204 16.5587 50.8194 16.8152C50.6201 17.3299 49.9217 17.3757 49.9217 17.9359C49.9191 18.5414 50.5037 18.6564 51.0112 19.0867C51.4071 19.4317 51.445 19.6699 51.924 19.8379C52.3337 19.9729 52.9425 19.5304 53.4907 19.6897C53.9399 19.8197 54.3704 19.9137 54.4725 20.3644C54.5622 20.7804 54.466 21.4237 53.9204 21.3494C53.7366 21.3289 52.9384 21.0677 51.9599 21.1694C50.7773 21.3004 49.4286 21.6762 49.2966 22.9619C49.2237 23.6794 50.1353 24.5262 51.0153 24.3539C51.623 24.2379 51.3358 23.5379 51.666 23.1987C52.1007 22.7629 54.5622 24.7179 56.8491 24.7179C57.8122 24.7179 58.5286 24.4804 59.2401 23.7542C59.3068 23.6982 59.3876 23.5797 59.4904 23.5717C59.5876 23.5797 59.7566 23.6729 59.8125 23.7124C61.654 25.1559 63.0471 28.0524 69.8184 28.0854C70.7712 28.0909 71.855 28.5347 72.7414 29.3222C73.5314 30.0342 73.9927 31.1429 74.4422 32.2669C75.1204 33.9534 76.3337 35.5944 78.1755 37.4197C78.2755 37.5177 79.7919 38.6667 79.9132 38.7522C79.9319 38.7654 80.0437 39.0242 80.0048 39.1687C79.9601 40.2642 79.7968 43.4472 82.2309 43.5917C82.8258 43.6207 82.6704 43.2127 82.6704 42.9327C82.6689 42.3777 82.5653 41.8269 82.8645 41.2587C83.2743 40.4782 81.9953 40.1189 82.0325 38.4307C82.0591 37.1719 80.9745 37.3867 80.4248 36.4277C80.1076 35.8722 79.8258 35.5777 79.846 34.8982C79.9699 31.0744 79.0114 28.5614 78.534 27.9442C78.1609 27.4787 77.8525 27.2939 78.193 27.0784C80.225 25.7692 80.6855 24.5529 80.6855 24.5529C81.7663 22.0772 82.7376 19.8159 84.0773 18.8199C84.3466 18.6139 85.0389 18.1104 85.463 17.9132C86.7137 17.3384 87.3709 16.9897 87.7345 16.6457C88.3083 16.1002 88.7632 14.9614 88.212 14.2714C87.5273 13.4199 86.3427 14.0954 85.8209 14.3979C82.086 16.5587 81.5355 20.3707 80.2419 22.5602C79.2099 24.3089 77.5317 25.5939 76.0312 25.6989C74.9076 25.7802 73.6942 25.5584 72.4873 25.0414C69.5514 23.7864 67.9453 22.1664 67.5648 21.8797C66.7763 21.2862 60.6535 15.4247 55.6914 15.1854C55.6914 15.1854 55.0755 13.9827 54.9209 13.9637C54.5583 13.9179 54.1868 14.6812 53.9204 14.7704C53.6701 14.8509 53.2494 13.9439 52.9968 13.9842V13.9844ZM31.1548 48.9654C30.6878 48.9544 30.2912 48.5812 30.2912 48.1194L30.2927 33.0294H25.1914V49.6624C25.1914 50.4784 25.8689 51.1429 26.7004 51.1429H35.615C36.4519 51.1429 37.1214 50.4784 37.1214 49.6624V33.0292H32.025L32.0209 48.1194C32.0209 48.5812 31.6242 48.9544 31.1548 48.9654ZM48.2322 33.0294H40.5132C39.5983 33.0294 38.8545 33.7537 38.8545 34.6534V51.1429H43.9607V36.0174C43.9614 35.9077 43.9842 35.7991 44.028 35.698C44.0717 35.5968 44.1355 35.505 44.2156 35.4279C44.2957 35.3508 44.3907 35.2898 44.495 35.2485C44.5993 35.2071 44.7109 35.1862 44.8235 35.1869C45.2996 35.1869 45.6825 35.5454 45.6927 36.0047V51.1429H50.7773V36.0047C50.7837 35.5454 51.1658 35.1872 51.6417 35.1872C52.1127 35.1872 52.5032 35.5539 52.5063 36.0172V51.1429H57.6125V34.6534C57.6125 33.7537 56.866 33.0292 55.953 33.0292H48.2325L48.2322 33.0294ZM21.7894 46.5914H16.6358V51.1429H11.5381V33.0294H21.8217C22.7422 33.0294 23.4609 33.7587 23.4609 34.6609V44.9587C23.4615 45.1731 23.4187 45.3854 23.3349 45.5836C23.2512 45.7818 23.1281 45.9619 22.9728 46.1137C22.8175 46.2654 22.633 46.3857 22.4298 46.4677C22.2267 46.5498 22.009 46.5919 21.7891 46.5917L21.7894 46.5914ZM18.366 36.0489C18.3676 35.937 18.3464 35.8258 18.3038 35.7219C18.2612 35.6179 18.1979 35.5232 18.1177 35.4431C18.0374 35.363 17.9417 35.2992 17.8361 35.2552C17.7305 35.2113 17.617 35.1881 17.5022 35.1869H16.636V44.3484H17.5022C17.9524 44.3484 18.3701 43.9997 18.366 43.4977V36.0489Z" fill="black"/>
<path d="M66.1717 51.1431V46.5956H64.4387V51.1431H59.343V34.6536C59.343 33.7539 60.0869 33.0294 61.0017 33.0294H69.6094C70.5258 33.0294 71.2689 33.7539 71.2689 34.6536V51.1431H66.1717ZM66.1717 44.3519V36.0111C66.1597 35.5504 65.7792 35.1961 65.3033 35.1961C64.832 35.1961 64.4435 35.5644 64.4387 36.0246V44.3519H66.1717Z" fill="black"/>
</svg>
